<svg width="214" height="347" viewBox="0 0 214 347" fill="none" xmlns="http://www.w3.org/2000/svg">
<path fill-rule="evenodd" clip-rule="evenodd" d="M64.5193 128.281C64.5191 128.281 64.519 128.281 64.5189 128.281C61.4676 128.281 58.9941 118.065 58.9941 105.463C58.9941 92.8608 61.4676 82.6448 64.5189 82.6448C64.519 82.6448 64.5191 82.6448 64.5193 82.6448H135.235C135.235 82.6448 135.236 82.6448 135.236 82.6448C138.287 82.6458 140.76 92.8614 140.76 105.463C140.76 118.064 138.287 128.28 135.236 128.281C135.236 128.281 135.235 128.281 135.235 128.281H64.5193Z" fill="#653C04"/>
<path fill-rule="evenodd" clip-rule="evenodd" d="M139.972 106.278H147.834V104.273C148.044 105.465 148.318 107.145 148.595 109.187C149.169 113.421 149.754 119.209 149.798 125.425C149.841 131.644 149.343 138.277 147.76 144.21C146.175 150.145 143.515 155.341 139.262 158.736C133.854 163.052 125.826 164.342 119.084 164.534C115.723 164.629 112.704 164.451 110.525 164.249C109.435 164.148 108.557 164.041 107.951 163.959C107.648 163.919 107.414 163.884 107.256 163.86C107.177 163.848 107.117 163.839 107.076 163.832L107.032 163.825L107.021 163.823L107.018 163.823L107.017 163.822L106.964 164.138H106.952V164.212C106.887 164.598 106.887 164.598 106.887 164.598L106.888 164.598L106.891 164.599L106.904 164.601L106.952 164.608L106.952 203.255H103.807V242.372H111.669V203.255H107.738V164.724L107.846 164.739C108.461 164.821 109.351 164.93 110.452 165.032C112.654 165.236 115.706 165.416 119.106 165.319C125.885 165.127 134.135 163.834 139.752 159.35C144.186 155.811 146.912 150.435 148.519 144.412C150.128 138.387 150.628 131.677 150.584 125.42C150.54 119.16 149.951 113.338 149.374 109.081C149.086 106.953 148.8 105.215 148.586 104.008C148.479 103.405 148.39 102.934 148.327 102.614C148.296 102.454 148.272 102.331 148.255 102.249L148.236 102.155L148.231 102.131L148.229 102.125L148.229 102.123C148.229 102.122 148.229 102.122 147.844 102.203L147.834 102.205V101.561H139.972V106.278Z" fill="black"/>
<path d="M201.892 91.1455L0 4.84028L2.06913 0C2.06913 0 194.385 78.0342 206.756 84.5898C219.126 91.1455 211.23 98.8026 211.23 98.8026L139.413 193.291L190.857 262.147C190.857 262.147 203.712 276.568 199.279 283.729C195.858 289.257 184.54 293.205 184.54 293.205L9.39191 347L2.06913 330.842L181.382 278.465L124.757 200.295C124.757 200.295 120.019 196.45 120.019 193.291C120.019 190.133 124.757 186.082 124.757 186.082L201.892 91.1455Z" fill="#78997F"/>
<path d="M72.1536 265.832V142.391H62.6784V265.832H72.1536Z" fill="#78997F"/>
</svg>
